# xmcd CD database file
#
# Track frame offsets:
#	150
#	11032
#	21343
#	30853
#	42607
#	53411
#	66097
#	77232
#	90663
#	102332
#	116184
#	127672
#	137083
#	147645
#	160082
#	172401
#	184104
#	196181
#	204573
#	214787
#
# Disc length: 3109 seconds
#
# Revision: 0
# Processed by: cddbd v1.5.2PL0 Copyright (c) Steve Scherf et al.
# Submitted via: CDex 1.51
#
DISCID=1e0c2314
DTITLE=Various Artist - New Orleans R&B Outbreak
DYEAR=2006
DGENRE=Blues
TTITLE0=Fats Domino - Ain't That a Shame
TTITLE1=Fats Domino - All by myself
TTITLE2=Fats Domino - You Done Me Wrong
TTITLE3=Fats Domino - The Fat Man
TTITLE4=Fats Domino - Hey, La Bas Boogie
TTITLE5=Booby Charles - See you later alligator
TTITLE6=Champion Jack Durpee - Mail Order Woman
TTITLE7=Champion Jack Durpee - House Rent Party
TTITLE8=Champion Jack Durpee - Bluse for Everybody
TTITLE9=Guitar Slim - The Things That I Used to Do
TTITLE10=Lloyd Price - Lawdy Miss Clawdy
TTITLE11=Lloyd Price - Where you at?
TTITLE12=Shirley and Lee - I'm Gone
TTITLE13=Dave Bartholomew - Good Jax Boogie
TTITLE14=Dave Bartholomew - Basin Street Breakdown
TTITLE15=Dave Bartholomew - Nickel Wine
TTITLE16=Archibald Ballin' - With Archie
TTITLE17=Jewel King - 3x7=21
TTITLE18=Jewel King - I Broke My Mother's Rule
TTITLE19=Joseph August - I Cried
EXTD=YEAR: 2006
EXTT0=
EXTT1=
EXTT2=
EXTT3=
EXTT4=
EXTT5=
EXTT6=
EXTT7=
EXTT8=
EXTT9=
EXTT10=
EXTT11=
EXTT12=
EXTT13=
EXTT14=
EXTT15=
EXTT16=
EXTT17=
EXTT18=
EXTT19=
PLAYORDER=
